<?xml version="1.0" encoding="utf-8"?>
<!-- Generator: Adobe Illustrator 23.0.3, SVG Export Plug-In . SVG Version: 6.00 Build 0)  -->
<svg version="1.1" id="Layer_1" xmlns="http://www.w3.org/2000/svg" xmlns:xlink="http://www.w3.org/1999/xlink" x="0px" y="0px"
	 viewBox="0 0 35 29.6" style="enable-background:new 0 0 35 29.6;" xml:space="preserve">
<style type="text/css">
	.st0{fill:none;stroke:#DC382D;stroke-miterlimit:10;}
	.st1{fill:none;stroke:#DC382D;stroke-width:1.25;stroke-miterlimit:10;}
	.st2{fill:none;stroke:#DC382D;stroke-width:1.75;stroke-miterlimit:10;}
	.st3{fill:#504F4E;}
	.st4{fill:#DC382D;}
	.st5{fill:none;stroke:#DC382D;stroke-width:1.5;stroke-miterlimit:10;}
	.st6{fill:none;stroke:#DC382D;stroke-width:1.25;stroke-linejoin:round;stroke-miterlimit:10;}
</style>
<g>
	<path class="st4" d="M35,8.2L17.5,0L0,8.2l17.5,8.2L35,8.2z M17.5,1.7l13.9,6.5l-13.9,6.5L3.5,8.2L17.5,1.7z"/>
	<path class="st4" d="M3.1,12.9l1.4,2.3c0,0,12.6,6,13,6s13-6,13-6l1.4-2.3l-14.4,6.7L3.1,12.9z"/>
	<path class="st4" d="M7.6,19.2L9,21.5c0,0,8.3,3.9,8.5,3.9s8.5-3.9,8.5-3.9l1.4-2.3l-9.9,4.6L7.6,19.2z"/>
	<path class="st4" d="M11.9,25.4l1.4,2.3c0,0,3.9,1.9,4.2,1.9s4.2-1.9,4.2-1.9l1.4-2.3L17.5,28L11.9,25.4z"/>
</g>
</svg>
